<svg width="250" height="250" viewBox="0 0 160 300" fill="none" xmlns="http://www.w3.org/2000/svg">
<g filter="url(#filter0_d_52_288)">
<path d="M0 14.9742C0 12.2128 2.23858 9.97418 5 9.97418H197C199.761 9.97418 202 12.2128 202 14.9742V233.526C202 236.287 199.761 238.526 197 238.526H5C2.23858 238.526 0 236.287 0 233.526V14.9742Z" fill="white"/>
<path d="M2 14.9742C2 13.3173 3.34314 11.9742 5 11.9742H197C198.657 11.9742 200 13.3173 200 14.9742V233.526C200 235.183 198.657 236.526 197 236.526H5C3.34315 236.526 2 235.183 2 233.526V14.9742Z" stroke="black" stroke-width="4"/>
</g>
<path d="M187.943 0.0824585V247.376L199.918 235.911V12.1543L187.943 0.0824585Z" fill="white"/>
<defs>
<filter id="filter0_d_52_288" x="0" y="9.97418" width="248.5" height="296.052" filterUnits="userSpaceOnUse" color-interpolation-filters="sRGB">
<feFlood flood-opacity="0" result="BackgroundImageFix"/>
<feColorMatrix in="SourceAlpha" type="matrix" values="0 0 0 0 0 0 0 0 0 0 0 0 0 0 0 0 0 0 127 0" result="hardAlpha"/>
<feOffset dx="24" dy="45"/>
<feGaussianBlur stdDeviation="11.25"/>
<feComposite in2="hardAlpha" operator="out"/>
<feColorMatrix type="matrix" values="0 0 0 0 0 0 0 0 0 0 0 0 0 0 0 0 0 0 0.25 0"/>
<feBlend mode="normal" in2="BackgroundImageFix" result="effect1_dropShadow_52_288"/>
<feBlend mode="normal" in="SourceGraphic" in2="effect1_dropShadow_52_288" result="shape"/>
</filter>
</defs>
</svg>
