<svg width="300" height="98" viewBox="0 0 300 98" fill="none" xmlns="http://www.w3.org/2000/svg">
<path d="M36.0224 40.9355V10.0775H21.3453L18.8506 32.3262C18.4076 36.319 17.3118 39.0761 15.7671 40.9355H36.0224ZM50.7694 40.9355V57.2971H41.0877V49.4106H9.6876V57.2971H0.00585938V40.9355C4.84965 40.4517 8.37028 38.2484 9.02894 32.2563L12.4796 1.60229H45.7158V40.9355H50.7694Z" fill="#E2002B"/>
<path d="M85.7542 25.3025C85.7542 16.4193 79.0044 9.04575 70.6399 9.04575C62.2056 9.04575 55.4558 16.4134 55.4558 25.3025C55.4558 34.2556 62.2056 41.6291 70.6399 41.6291C79.0102 41.6291 85.7542 34.2556 85.7542 25.3025ZM95.5117 25.3025C95.5117 39.216 85.0198 50.2383 70.6399 50.2383C56.1902 50.2383 45.6982 39.216 45.6982 25.3025C45.6982 11.4589 56.1902 0.436523 70.6399 0.436523C85.0256 0.436523 95.5117 11.4589 95.5117 25.3025Z" fill="#E2002B"/>
<path d="M105.182 10.0775V23.991H116.845C121.322 23.991 124.032 21.8576 124.032 17.0372C124.032 12.2167 121.316 10.0775 116.845 10.0775H105.182ZM117.143 32.3263H105.182V49.4107H95.5V1.60815H116.921C127.559 1.60815 133.72 7.67017 133.72 17.0372C133.72 25.9203 127.192 32.3263 117.143 32.3263Z" fill="#E2002B"/>
<path d="M172.966 25.3025C172.966 16.4193 166.216 9.04575 157.851 9.04575C149.417 9.04575 142.667 16.4134 142.667 25.3025C142.667 34.2556 149.417 41.6291 157.851 41.6291C166.222 41.6291 172.966 34.2556 172.966 25.3025ZM182.723 25.3025C182.723 39.216 172.231 50.2383 157.851 50.2383C143.402 50.2383 132.91 39.216 132.91 25.3025C132.91 11.4589 143.402 0.436523 157.851 0.436523C172.237 0.436523 182.723 11.4589 182.723 25.3025Z" fill="#E2002B"/>
<path d="M182.706 1.60815H217.26V10.0775H192.388V49.4107H182.706V1.60815Z" fill="#E2002B"/>
<path d="M252.297 25.3025C252.297 16.4193 245.547 9.04575 237.182 9.04575C228.748 9.04575 221.998 16.4134 221.998 25.3025C221.998 34.2556 228.748 41.6291 237.182 41.6291C245.547 41.6291 252.297 34.2556 252.297 25.3025ZM262.054 25.3025C262.054 39.216 251.562 50.2383 237.182 50.2383C222.733 50.2383 212.241 39.216 212.241 25.3025C212.241 11.4589 222.733 0.436523 237.182 0.436523C251.562 0.436523 262.054 11.4589 262.054 25.3025Z" fill="#E2002B"/>
<path d="M299.68 49.4107H261.967V1.60815H299.167V10.0775H271.654V20.2722H295.133V28.7473H271.654V40.9413H299.68V49.4107Z" fill="#E2002B"/>
<path d="M300 88.26H285.177V81.3936H297.593V76.6198H285.177V70.8783H299.726V66.1045H280.054V93.0338H299.994V88.26H300ZM253.83 66.1045V93.0338H260.002L270.984 73.2448V93.0338H276.107V66.1045H269.941L258.988 85.8935V66.1045H253.83ZM245.914 84.9259C245.914 87.5664 243.973 88.3416 241.997 88.3416H234.699V81.3936H241.875C244.48 81.3936 245.914 82.6759 245.914 84.9259ZM241.997 70.7617C243.938 70.7617 245.139 71.9275 245.139 73.7112C245.139 75.4948 243.74 76.7014 241.997 76.7014H234.699V70.7676H241.997V70.7617ZM251.154 85.1182C251.154 82.0523 249.755 79.8781 247.47 78.6773C249.137 77.4766 250.111 75.6522 250.111 73.4022C250.111 68.9023 247.395 66.1103 242.003 66.1103H229.587V93.0397H242.702C247.896 93.0338 251.154 89.927 251.154 85.1182ZM227.489 70.8783V66.1045H207.933V70.8783H215.149V93.0338H220.273V70.8783H227.489ZM207.385 84.5004H201.877C200.676 86.9427 198.228 88.8429 195.162 88.8429C190.738 88.8429 187.246 84.5762 187.246 79.4526C187.246 74.3698 190.738 70.1031 195.162 70.1031C198.269 70.1031 200.67 71.9275 201.877 74.3698H207.426C205.759 68.8615 201.259 65.405 195.168 65.405C187.835 65.405 182.129 71.572 182.129 79.4526C182.129 87.3274 187.835 93.5001 195.168 93.5001C201.142 93.5001 205.683 89.9679 207.385 84.5004ZM175.647 84.8501C175.647 87.1758 174.33 88.3416 171.73 88.3416H164.747V81.3936H171.73C174.33 81.3936 175.647 82.5186 175.647 84.8501ZM164.747 66.1045H159.623V93.0338H172.429C177.553 93.0338 180.887 89.6589 180.887 84.8501C180.887 80.0413 177.553 76.7014 172.429 76.7014H164.747V66.1045ZM141.7 70.8783H150.507V93.0338H155.631V66.1045H137.007L135.031 84.6111C134.758 87.135 133.633 88.26 131.19 88.26H130.765V93.0338H131.231C136.43 93.0338 139.572 90.9005 140.231 84.6519L141.7 70.8783ZM116.869 88.6505C112.41 88.6505 108.837 84.5004 108.837 79.4526C108.837 74.4456 112.404 70.2954 116.869 70.2954C121.293 70.2954 124.86 74.4456 124.86 79.4526C124.86 84.5004 121.293 88.6505 116.869 88.6505ZM116.869 65.4458C109.227 65.4458 103.678 71.6536 103.678 79.4526C103.678 87.2924 109.227 93.5001 116.869 93.5001C124.475 93.5001 130.024 87.2924 130.024 79.4526C130.019 71.6536 124.47 65.4458 116.869 65.4458ZM96.9632 84.9259C96.9632 87.5664 95.0222 88.3416 93.0462 88.3416H85.7542V81.3936H92.9296C95.5293 81.3936 96.9632 82.6759 96.9632 84.9259ZM93.0462 70.7617C94.9872 70.7617 96.1879 71.9275 96.1879 73.7112C96.1879 75.4948 94.789 76.7014 93.0462 76.7014H85.7542V70.7676H93.0462V70.7617ZM102.203 85.1182C102.203 82.0523 100.804 79.8781 98.5195 78.6773C100.187 77.4766 101.16 75.6522 101.16 73.4022C101.16 68.9023 98.4437 66.1103 93.052 66.1103H80.6365V93.0397H93.7515C98.945 93.0338 102.203 89.927 102.203 85.1182ZM64.7179 88.6505C60.2588 88.6505 56.6857 84.5004 56.6857 79.4526C56.6857 74.4456 60.253 70.2954 64.7179 70.2954C69.142 70.2954 72.7093 74.4456 72.7093 79.4526C72.7151 84.5004 69.142 88.6505 64.7179 88.6505ZM64.7179 65.4458C57.0762 65.4458 51.5272 71.6536 51.5272 79.4526C51.5272 87.2924 57.0762 93.5001 64.7179 93.5001C72.3246 93.5001 77.8736 87.2924 77.8736 79.4526C77.8736 71.6536 72.3246 65.4458 64.7179 65.4458ZM30.8464 88.26C31.6624 87.2108 32.2453 85.6603 32.4726 83.4104L33.7899 70.8783H42.2476V88.26H30.8464ZM47.377 88.26V66.1045H29.1035L27.2791 83.3696C26.9294 86.7445 25.0699 87.986 22.5052 88.26V98H27.6288V93.0338H44.9347V98H50.0583V88.26H47.377ZM15.6388 81.4694V82.5186C15.6388 86.7095 13.6629 88.7263 10.2821 88.7263C7.83983 88.7263 6.28352 87.6771 5.62486 86.284H0C1.00839 90.3176 4.89043 93.5001 10.2821 93.5001C17.4983 93.5001 20.7974 89.2334 20.7974 82.367V66.1103H15.6388V73.5188C15.6388 77.2026 13.8144 79.1029 10.3987 79.1029C6.98299 79.1029 5.15855 77.5116 5.15855 73.5188V66.1103H0.0349807V73.3672C0.0349807 80.2744 3.99278 83.8825 9.85079 83.8825C12.5729 83.8767 14.4731 82.8683 15.6388 81.4694Z" fill="#E2002B"/>
</svg>
